<svg id="visual" viewBox="0 0 900 450" width="900" height="450" xmlns="http://www.w3.org/2000/svg" xmlns:xlink="http://www.w3.org/1999/xlink" version="1.1"><rect x="0" y="0" width="900" height="450" fill="#fff"></rect><defs><linearGradient id="grad1_0" x1="50%" y1="0%" x2="100%" y2="100%"><stop offset="10%" stop-color="#ffffff" stop-opacity="1"></stop><stop offset="90%" stop-color="#ffffff" stop-opacity="1"></stop></linearGradient></defs><defs><linearGradient id="grad2_0" x1="0%" y1="0%" x2="50%" y2="100%"><stop offset="10%" stop-color="#ffffff" stop-opacity="1"></stop><stop offset="90%" stop-color="#ffffff" stop-opacity="1"></stop></linearGradient></defs><g transform="translate(900, 0)"><path d="M0 292.5C-32.7 274.9 -65.5 257.4 -101.8 245.8C-138.1 234.2 -177.9 228.5 -206.8 206.8C-235.7 185.1 -253.6 147.4 -266.1 110.2C-278.5 73.1 -285.5 36.5 -292.5 0L0 0Z" fill="#0A58CA"></path></g><g transform="translate(0, 450)"><path d="M0 -292.5C39.3 -286 78.5 -279.5 107.9 -260.5C137.3 -241.6 156.9 -210.2 185.3 -185.3C213.7 -160.3 250.9 -141.7 270.2 -111.9C289.6 -82.1 291 -41.1 292.5 0L0 0Z" fill="#0A58CA"></path></g></svg>