<svg id="visual" viewBox="0 0 960 540" width="960" height="540" xmlns="http://www.w3.org/2000/svg" xmlns:xlink="http://www.w3.org/1999/xlink" version="1.1"><path d="M0 401L22.8 410.3C45.7 419.7 91.3 438.3 137 439.5C182.7 440.7 228.3 424.3 274 416.2C319.7 408 365.3 408 411.2 416C457 424 503 440 548.8 440C594.7 440 640.3 424 686 424.2C731.7 424.3 777.3 440.7 823 439.3C868.7 438 914.3 419 937.2 409.5L960 400L960 541L937.2 541C914.3 541 868.7 541 823 541C777.3 541 731.7 541 686 541C640.3 541 594.7 541 548.8 541C503 541 457 541 411.2 541C365.3 541 319.7 541 274 541C228.3 541 182.7 541 137 541C91.3 541 45.7 541 22.8 541L0 541Z" fill="#0A58CA" stroke-linecap="round" stroke-linejoin="miter"></path></svg>